Coordinates
version=1
nRows=17
nColumns=34
inDegrees=yes

Units are S.I. units (second, meters, Newtons, ...)
If the header above contains a line with 'inDegrees', this indicates whether rotational values are in degrees (yes) or radians (no).

endheader
time	pelvis_tilt	pelvis_list	pelvis_rotation	pelvis_tx	pelvis_ty	pelvis_tz	hip_flexion_r	hip_adduction_r	hip_rotation_r	knee_angle_r	ankle_angle_r	subtalar_angle_r	mtp_angle_r	hip_flexion_l	hip_adduction_l	hip_rotation_l	knee_angle_l	ankle_angle_l	subtalar_angle_l	mtp_angle_l	lumbar_extension	lumbar_bending	lumbar_rotation	arm_flex_r	arm_add_r	arm_rot_r	elbow_flex_r	pro_sup_r	arm_flex_l	arm_add_l	arm_rot_l	elbow_flex_l	pro_sup_l
      3.00000000	     -5.31361114	     -0.15513299	      0.59910852	      1.71355387	      0.84139595	     -0.03537374	     18.11999815	    -11.67052632	    -14.47471587	     41.55032387	     25.75518413	     -3.31455568	      0.00000000	     22.23710510	     -7.52655232	     -4.34823958	     44.14954249	     24.53339534	      4.22585272	      0.00000000	     -5.05196171	     -0.06404491	      3.06313304	     55.19330120	      4.01158310	      9.45703305	    122.40674244	     96.50045664	     81.84684499	      1.77747456	     28.50731409	     98.34801333	     91.79498510
      3.01666670	     -5.58336796	     -0.12844180	      1.34768425	      1.71742934	      0.85748562	     -0.03364401	     15.88769785	    -10.72141428	    -15.02073736	     36.93139028	     22.85811284	     -4.28552977	      0.00000000	     20.12201568	     -7.35106903	     -4.55179975	     39.24634974	     21.61024410	      5.05160941	      0.00000000	     -4.11252789	     -0.58365650	      3.39465543	     59.36391406	      3.07248080	      8.67514998	    121.65470338	     96.46962791	     86.17833623	      1.72723524	     28.91520670	     96.88423984	     91.81896492
      3.03333330	     -5.93602694	     -0.08048057	      2.16854735	      1.72095861	      0.87421867	     -0.03224418	     13.77024138	     -9.77155253	    -15.58745117	     32.13648951	     19.32232024	     -5.10063294	      0.00000000	     18.08161073	     -7.08593601	     -4.51822346	     34.10090326	     17.92521923	      5.85870364	      0.00000000	     -3.09551383	     -1.24095463	      3.80686841	     63.82047026	      1.89327261	      7.78678945	    119.66264249	     96.35546346	     90.24930124	      2.14814325	     29.46320925	     95.80011019	     91.83631950
      3.05000000	     -6.03880814	      0.02512771	      2.92364091	      1.72347525	      0.88970192	     -0.03160954	     11.76094827	     -8.91563862	    -15.94309876	     27.77692535	     15.35266232	     -6.23662212	      0.00000000	     16.00058227	     -6.81103147	     -4.63154927	     29.23180498	     13.76803411	      6.50744849	      0.00000000	     -2.63017368	     -1.93205446	      4.31521411	     69.92513967	      0.56838956	      6.43978481	    116.17201984	     96.06413017	     95.00902546	      2.59861917	     29.91885193	     94.17830099	     91.83722260
      3.06666670	     -6.18542183	      0.15283184	      3.71461470	      1.72619353	      0.90233622	     -0.03191449	      9.98058946	     -8.23486055	    -16.42989631	     23.75354470	     11.14064208	     -7.21597365	      0.00000000	     14.22157260	     -6.46299829	     -4.64038077	     24.77421921	      9.38675497	      7.09442615	      0.00000000	     -2.06815234	     -2.63413374	      5.01404579	     77.37619152	     -1.22124810	      5.10990469	    109.71452828	     95.70000683	     99.78749666	      3.20038691	     29.86398513	     92.08490091	     91.81316024
      3.08333330	     -6.27353713	      0.25237597	      4.51709589	      1.72871031	      0.91335512	     -0.03253325	      8.37007345	     -7.66664241	    -16.90326019	     20.14930476	      6.84556226	     -8.05543281	      0.00000000	     12.69188191	     -6.11192378	     -4.53702075	     20.85798185	      4.99263710	      7.60067727	      0.00000000	     -1.64646717	     -3.26098526	      5.84194364	     86.27750434	     -3.35674404	      4.17116258	     99.50003038	     95.41742431	    104.88557047	      3.89092712	     29.02950877	     88.71873189	     91.72185290
      3.10000000	     -6.30569267	      0.24951714	      5.30167472	      1.73042727	      0.92239903	     -0.03267809	      6.91858104	     -7.10570538	    -17.25061104	     16.90672405	      2.49957587	     -8.81938361	      0.00000000	     11.43098851	     -5.86912508	     -4.34673300	     17.50584272	      0.75066590	      7.96381378	      0.00000000	     -1.51568864	     -3.84243506	      6.56306032	     96.27391221	     -5.42302808	      4.18770114	     85.03008915	     95.30908895	    110.25204013	      4.76296126	     27.55572278	     84.49715230	     91.47362374
      3.11666670	     -6.41938431	      0.16681991	      5.97041477	      1.73146039	      0.92842961	     -0.03231181	      5.87749490	     -6.62429476	    -17.45200611	     14.22426903	     -1.50926429	     -9.45592488	      0.00000000	     10.56229751	     -5.67425660	     -4.05568587	     14.74695425	     -2.98777693	      8.09374757	      0.00000000	     -1.47272922	     -4.41065877	      7.42121735	    107.41666422	     -7.09506890	      5.64322957	     66.64344736	     95.51747799	    115.61022944	      6.21442453	     26.08053305	     80.07130508	     90.95189531
      3.13333330	     -6.70447694	      0.01073126	      6.50483714	      1.73314435	      0.93372407	     -0.03213148	      5.30912342	     -6.25381963	    -17.63638891	     12.09816901	     -5.16889019	     -9.76482115	      0.00000000	     10.09061484	     -5.55085014	     -3.80832396	     12.45941302	     -6.32249062	      8.01149919	      0.00000000	     -1.43780299	     -5.10334392	      8.54243859	    118.96582091	     -8.49837252	      8.50211499	     46.94851344	     95.80677461	    120.90181179	      8.28006406	     24.96153240	     76.00777990	     90.15602764
      3.15000000	     -7.06046064	     -0.14222889	      6.99293971	      1.73735961	      0.93801341	     -0.03282829	      4.90735241	     -6.02719166	    -17.92221072	     10.34886185	     -8.51074310	     -9.76016448	      0.00000000	      9.73665219	     -5.41950522	     -3.36837023	     10.48493354	     -9.20314611	      7.83474426	      0.00000000	     -1.37946114	     -5.83971720	      9.74912386	    130.08483869	     -9.48288181	     13.04788339	     29.05087899	     95.62429210	    125.80045683	     10.50888881	     24.30052808	     73.30239564	     89.12129879
      3.16666670	     -7.77702777	     -0.35426007	      7.21452242	      1.74306760	      0.94101295	     -0.03324313	      5.04164804	     -5.85656361	    -17.92832458	      8.99585627	    -11.59870935	     -9.18599525	      0.00000000	      9.81407614	     -5.34205580	     -2.65994801	      8.92766441	    -11.62354814	      6.89390449	      0.00000000	     -0.56354565	     -6.39669477	     11.93759471	    140.56637870	    -11.38448767	     32.37386122	     14.29216581	     88.09324402	    129.85033816	     12.86988926	     23.86764803	     71.08843919	     85.76384178
      3.18333330	     -8.10149038	     -0.47280642	      7.44225875	      1.74827682	      0.94166478	     -0.03121474	      4.75987150	     -5.65697206	    -17.97092883	      7.92822891	    -14.06395351	     -8.74053355	      0.00000000	      9.23865294	     -5.34185806	     -2.09043955	      7.12881658	    -14.00276406	      6.46591529	      0.00000000	     -0.08194482	     -7.12041931	     12.58579298	    146.76490398	    -10.63964733	     32.98353401	      6.81280335	     85.69739065	    133.97975829	     14.04745886	     24.21400308	     70.38461774	     85.62744474
      3.20000000	     -8.46303611	     -0.69478896	      7.63925664	      1.75145128	      0.93947291	     -0.02773918	      4.77782096	     -5.30300832	    -17.89663557	      7.35010079	    -16.18145155	     -8.71406725	      0.00000000	      8.94184639	     -5.52182264	     -1.06063071	      5.80422169	    -15.79696041	      5.55578723	      0.00000000	      0.37348789	     -7.60086897	     13.16835680	    151.86320908	     -9.84090991	     35.71110043	      3.71775842	     83.52993868	    137.95594111	     14.59265722	     24.97475268	     69.95180726	     85.64393238
      3.21666670	     -8.79763666	     -1.02498188	      7.79461089	      1.75444612	      0.93681685	     -0.02511112	      5.05435657	     -4.84031044	    -17.85836518	      7.32731623	    -17.95856074	     -9.28605170	      0.00000000	      8.81048295	     -5.88713850	     -0.05223428	      4.86062170	    -17.20169011	      4.48491488	      0.00000000	      0.74762505	     -7.98163800	     13.33332894	    155.32482501	     -9.38766973	     39.72717576	      5.01240943	     80.52066651	    141.60478485	     14.75291366	     25.80187829	     69.33419011	     85.98887624
      3.23333330	     -9.42953779	     -1.41315341	      7.86591944	      1.75883394	      0.93621403	     -0.02442031	      5.91349020	     -4.49946913	    -18.00076325	      7.89873189	    -18.79159129	     -9.19671877	      0.00000000	      9.29780925	     -6.26504148	      0.39611556	      4.61978018	    -17.77822249	      4.12084285	      0.00000000	      1.42623108	     -8.01364351	     13.35044239	    157.78236641	     -8.32037778	     40.32810532	      7.45803322	     79.75092864	    144.12482945	     14.51959390	     25.56674658	     69.77600721	     86.18292100
      3.25000000	     -9.46215197	     -1.74684741	      8.01991289	      1.76424910	      0.93818531	     -0.02490421	      5.90138558	     -4.13580306	    -17.96761721	      8.22454634	    -19.87064024	     -9.38193231	      0.00000000	      9.05381515	     -6.53890644	      1.01956622	      4.32210138	    -18.82427578	      2.67331060	      0.00000000	      1.55246745	     -7.97806669	     12.77188700	    158.66428517	     -7.81860722	     40.82987625	     12.24304475	     77.81914316	    145.93231069	     13.93331799	     26.28607959	     69.60441247	     87.14751226
      3.26666670	     -9.51391344	     -1.92311518	      8.17182461	      1.76958100	      0.93947357	     -0.02602126	      5.81088690	     -4.04338376	    -17.91828390	      8.55243506	    -20.32045406	     -9.11872823	      0.00000000	      8.83459305	     -6.54694849	      1.10383823	      4.26811757	    -19.22962617	      1.54153745	      0.00000000	      1.59960517	     -7.91269573	     12.19173986	    159.31534973	     -7.00232440	     40.03200154	     16.27895499	     76.49789830	    147.12047867	     13.31600217	     26.78136565	     70.36290070	     88.20984484
